<svg viewBox="0 0 1856 261" fill="none" xmlns="http://www.w3.org/2000/svg">
<path d="M137.252 241.738C127.379 251.128 113.172 257.147 98.2433 257.388C51.7703 257.147 41.1755 217.901 41.1755 165.653C41.1755 113.164 51.048 73.9177 97.5209 73.9177C112.45 73.9177 125.453 80.4186 135.325 89.5681L160.849 133.148H162.535V73.1954H160.849L136.77 85.7157C129.546 79.6963 115.821 70.5469 97.5209 70.5469C52.9743 70.5469 0 105.218 0 165.653C0 226.328 52.0111 260.759 98.4841 260.759C116.784 260.759 131.954 251.369 138.696 245.59L163.98 258.11H165.665V195.509H163.739L137.252 241.738Z" fill="#CACCCE"/>
<path d="M288.469 257.388C244.163 257.388 234.05 221.031 234.05 165.894C234.05 110.756 244.163 74.1585 288.469 74.1585C332.775 74.1585 342.888 110.997 342.888 165.894C342.888 220.79 332.775 257.388 288.469 257.388ZM288.469 70.5469C244.886 70.5469 193.115 107.867 193.115 165.653C193.115 223.439 244.645 260.759 288.469 260.759C332.293 260.759 383.823 223.439 383.823 165.653C383.823 107.867 332.053 70.5469 288.469 70.5469Z" fill="#CACCCE"/>
<path d="M536.245 73.918V76.8073H560.083V193.824H559.601L476.047 73.918H404.531V76.8073H428.129V254.74H404.531V257.629H455.579V254.74H431.982V76.8073H432.463L562.732 261H563.936V76.8073H587.774V73.918H536.245Z" fill="#CACCCE"/>
<path d="M688.185 254.74H668.44V76.8073H688.185C735.621 76.8073 757.533 109.793 757.533 165.653C757.533 221.754 735.621 254.74 688.185 254.74ZM688.907 73.918H608.242V76.8073H631.598V254.74H608.242V257.629H688.907C729.119 257.629 797.745 240.053 797.745 164.69C797.745 89.3276 729.119 73.918 688.907 73.918Z" fill="#CACCCE"/>
<path d="M947.518 254.74H878.651V160.597H913.085C924.402 169.746 937.645 196.232 937.645 196.232H939.09V122.073H937.645C937.645 122.073 924.402 148.558 913.085 157.708H878.651V76.8073H940.294C958.113 88.6052 973.764 123.277 973.764 123.277H975.209V73.918H818.453V76.8073H841.81V254.74H818.453V257.629H980.506V195.991H978.821C978.821 195.991 963.41 237.163 947.518 254.74Z" fill="#CACCCE"/>
<path d="M942.462 0L884.912 47.9142L885.394 49.1181L944.388 35.1531L939.813 22.3921L943.665 0.722324L942.462 0Z" fill="#CACCCE"/>
<path d="M1264.64 73.918V76.8073H1288.72V193.824H1288L1204.44 73.918H1132.93V76.8073H1156.53V254.74H1132.93V257.629H1183.98V254.74H1160.38V76.8073H1160.86L1291.13 261H1292.33V76.8073H1316.17V73.918H1264.64Z" fill="#CACCCE"/>
<path d="M1396.35 115.572L1425.49 181.544H1368.9L1396.35 115.572ZM1412.97 67.6577L1334.23 254.74H1312.56V257.629H1361.44V254.74H1338.08L1367.46 184.674H1426.69L1457.52 254.74H1433.92V257.629H1519.4V254.74H1497.49L1414.17 67.6577H1412.97Z" fill="#CACCCE"/>
<path d="M1625.11 149.762L1589.23 137.483C1571.41 131.463 1556.72 122.555 1556.72 105.219C1556.72 84.9938 1572.37 73.9182 1596.21 73.9182C1610.9 73.9182 1620.53 78.0113 1629.2 86.1977L1654.97 128.574H1656.17V70.7881H1654.97L1630.65 82.8268C1624.39 77.5298 1614.03 70.7881 1596.45 70.7881C1562.02 70.7881 1539.15 93.6617 1538.9 125.685C1539.15 151.688 1556.96 164.931 1577.67 172.636L1614.27 186.119C1633.54 193.102 1646.78 201.529 1646.78 221.032C1646.78 239.331 1634.74 257.87 1603.2 258.111C1588.27 257.87 1571.17 251.369 1561.78 241.738L1534.09 194.787H1532.88L1534.09 258.592H1535.29L1560.09 245.109C1567.56 251.61 1584.9 261 1603.2 261C1642.93 261 1668.93 232.589 1668.93 201.77C1668.69 171.191 1647.74 157.467 1625.11 149.762Z" fill="#CACCCE"/>
<path d="M1686.27 73.918V130.741H1687.47C1687.47 130.741 1704.57 94.3838 1720.46 76.8073H1752.25V254.74H1723.59V257.629H1817.5V254.74H1789.09V76.8073H1820.87C1836.76 94.3838 1853.86 130.741 1853.86 130.741H1855.06V73.918H1686.27Z" fill="#CACCCE"/>
</svg>