<svg width="1838" height="208" viewBox="0 0 1838 208" fill="none" xmlns="http://www.w3.org/2000/svg">
<path d="M167.481 63.736V17.224H0.20118V63.736H3.73718C6.45718 51.768 21.4172 24.84 33.1132 23.208C39.6412 22.392 49.9772 22.12 55.4172 22.12H72.8252V183.144C72.8252 189.128 70.9212 194.296 64.3932 196.744C60.8572 198.104 46.9852 199.464 42.0892 199.736V203H125.865V199.736C120.969 199.464 106.825 196.744 103.561 195.384C97.3052 192.664 95.1292 187.768 95.1292 181.784V22.12H112.265C119.609 22.12 128.313 22.392 134.841 23.208C146.537 24.84 161.225 51.768 164.217 63.736H167.481ZM315.36 203V199.736C310.464 199.464 307.2 198.648 303.392 197.016C298.496 194.84 296.048 190.488 296.048 184.504V119.768C296.048 93.928 285.168 76.792 259.872 76.792C236.48 76.792 225.6 89.032 215.264 99.096H214.72V1.99199L212.816 0.087986L170.384 2.80798V6.07199C175.28 6.34399 185.072 7.976 188.336 10.152C192.688 13.144 195.68 19.128 195.68 25.928V185.592C195.68 191.576 193.504 196.472 188.336 198.104C184.528 199.464 181.264 199.464 176.368 199.736V203H236.48V199.736C231.312 199.464 226.96 198.648 222.608 196.744C217.712 194.568 214.72 190.216 214.72 184.232V106.168C217.984 99.912 230.224 86.312 251.712 86.312C264.496 86.312 276.736 96.92 276.736 115.96V185.592C276.736 191.576 274.016 196.472 268.304 198.104C264.224 199.192 259.872 199.464 254.432 199.736V203H315.36ZM432.209 173.896L428.945 171.992C418.609 188.584 410.721 197.56 389.233 197.56C359.857 197.56 348.161 170.904 348.161 136.088V133.368H429.761V131.464C429.761 100.456 416.705 76.792 381.345 76.792C347.073 76.792 327.217 108.344 327.217 140.44C327.217 175.8 345.169 205.72 384.337 205.72C406.097 205.72 422.961 193.208 432.209 173.896ZM409.361 127.928L348.161 128.472C348.977 98.28 362.849 80.6 381.889 80.6C404.737 80.6 409.361 102.904 409.361 127.928ZM666.62 155.944L661.18 152.952C652.204 176.888 635.612 197.288 601.34 197.288C563.804 197.288 532.796 164.104 532.796 111.336C532.796 46.056 562.988 21.304 588.556 21.304C626.908 21.304 647.036 52.584 656.012 81.144H659.548L658.46 14.232H653.292L644.86 30.824C632.348 19.944 614.668 14.232 600.796 14.232C547.756 14.232 507.228 57.752 507.228 112.424C507.228 169.272 540.956 207.08 594.54 207.08C635.884 207.08 656.284 180.152 666.62 155.944ZM793.075 140.168C793.075 104.536 769.955 76.792 734.051 76.792C697.603 76.792 673.395 103.72 673.395 142.344C673.395 181.784 701.139 206.536 731.603 206.536C770.499 206.536 793.075 175.8 793.075 140.168ZM772.131 140.44C772.131 173.896 759.619 202.728 733.507 202.728C705.763 202.728 694.339 173.08 694.339 139.896C694.339 113.24 702.771 80.6 733.507 80.6C762.067 80.6 772.131 111.064 772.131 140.44ZM947.014 203V199.736C942.118 199.464 938.854 198.648 935.046 197.016C930.15 194.84 927.702 190.488 927.702 184.504V119.768C927.702 93.928 916.278 76.792 890.982 76.792C867.59 76.792 857.254 89.032 846.918 99.096H846.374V80.6L844.47 78.696L806.934 81.688V84.408C811.83 84.68 816.998 86.584 820.262 88.76C824.614 91.752 827.606 97.464 827.606 103.176V185.592C827.606 191.576 825.158 196.472 819.99 198.104C816.182 199.464 812.918 199.464 808.022 199.736V203H868.406V199.736C863.51 199.464 858.886 198.648 854.534 196.744C849.366 194.568 846.374 190.216 846.374 184.232V106.168C849.638 99.912 861.878 86.312 883.366 86.312C896.15 86.312 908.662 96.92 908.662 115.96V185.592C908.662 191.576 905.942 196.472 900.23 198.104C896.15 199.192 891.798 199.464 886.358 199.736V203H947.014ZM1096.98 200.824V197.56C1092.09 197.288 1084.2 196.472 1080.94 194.296C1076.58 191.304 1073.86 186.68 1073.86 180.968V1.99199L1071.96 0.087986L1023.82 2.80798V5.79999C1031.16 6.34399 1043.13 8.51999 1047.75 11.784C1051.83 14.776 1054.82 20.488 1054.82 27.56V84.136C1051.56 82.776 1039.05 76.792 1021.91 76.792C989.544 76.792 959.352 102.904 959.352 139.896C959.352 180.696 984.92 206.264 1017.56 206.264C1034.7 206.264 1048.02 195.656 1054.01 189.4L1055.1 189.672V201.368L1057 203.272L1096.98 200.824ZM1054.82 183.144C1047.21 191.032 1038.78 198.376 1024.63 198.376C994.168 198.376 980.84 171.176 980.84 143.16C980.84 104.808 997.976 80.6 1020.82 80.6C1041.22 80.6 1051.56 94.744 1054.82 104.536V183.144ZM1210.64 173.896L1207.38 171.992C1197.04 188.584 1189.15 197.56 1167.66 197.56C1138.29 197.56 1126.59 170.904 1126.59 136.088V133.368H1208.19V131.464C1208.19 100.456 1195.14 76.792 1159.78 76.792C1125.5 76.792 1105.65 108.344 1105.65 140.44C1105.65 175.8 1123.6 205.72 1162.77 205.72C1184.53 205.72 1201.39 193.208 1210.64 173.896ZM1187.79 127.928L1126.59 128.472C1127.41 98.28 1141.28 80.6 1160.32 80.6C1183.17 80.6 1187.79 102.904 1187.79 127.928ZM1184.26 13.96C1184.26 8.79199 1180.99 4.168 1174.74 4.168C1167.66 4.168 1163.58 7.43199 1158.69 15.864C1152.7 25.928 1145.63 37.08 1131.76 57.208L1134.48 59.656C1156.24 42.248 1166.03 35.176 1174.19 28.648C1180.99 23.208 1184.26 20.76 1184.26 13.96ZM1445.05 155.944L1439.61 152.952C1430.63 176.888 1414.04 197.288 1379.77 197.288C1342.23 197.288 1311.23 164.104 1311.23 111.336C1311.23 46.056 1341.42 21.304 1366.99 21.304C1405.34 21.304 1425.47 52.584 1434.44 81.144H1437.98L1436.89 14.232H1431.72L1423.29 30.824C1410.78 19.944 1393.1 14.232 1379.23 14.232C1326.19 14.232 1285.66 57.752 1285.66 112.424C1285.66 169.272 1319.39 207.08 1372.97 207.08C1414.31 207.08 1434.71 180.152 1445.05 155.944ZM1571.5 140.168C1571.5 104.536 1548.38 76.792 1512.48 76.792C1476.03 76.792 1451.82 103.72 1451.82 142.344C1451.82 181.784 1479.57 206.536 1510.03 206.536C1548.93 206.536 1571.5 175.8 1571.5 140.168ZM1550.56 140.44C1550.56 173.896 1538.05 202.728 1511.94 202.728C1484.19 202.728 1472.77 173.08 1472.77 139.896C1472.77 113.24 1481.2 80.6 1511.94 80.6C1540.5 80.6 1550.56 111.064 1550.56 140.44ZM1723.54 200.824V197.56C1718.64 197.288 1710.76 196.472 1707.49 194.296C1703.14 191.304 1700.42 186.68 1700.42 180.968V1.99199L1698.52 0.087986L1650.37 2.80798V5.79999C1657.72 6.34399 1669.68 8.51999 1674.31 11.784C1678.39 14.776 1681.38 20.488 1681.38 27.56V84.136C1678.12 82.776 1665.6 76.792 1648.47 76.792C1616.1 76.792 1585.91 102.904 1585.91 139.896C1585.91 180.696 1611.48 206.264 1644.12 206.264C1661.25 206.264 1674.58 195.656 1680.56 189.4L1681.65 189.672V201.368L1683.56 203.272L1723.54 200.824ZM1681.38 183.144C1673.76 191.032 1665.33 198.376 1651.19 198.376C1620.72 198.376 1607.4 171.176 1607.4 143.16C1607.4 104.808 1624.53 80.6 1647.38 80.6C1667.78 80.6 1678.12 94.744 1681.38 104.536V183.144ZM1837.2 173.896L1833.93 171.992C1823.6 188.584 1815.71 197.56 1794.22 197.56C1764.84 197.56 1753.15 170.904 1753.15 136.088V133.368H1834.75V131.464C1834.75 100.456 1821.69 76.792 1786.33 76.792C1752.06 76.792 1732.2 108.344 1732.2 140.44C1732.2 175.8 1750.16 205.72 1789.32 205.72C1811.08 205.72 1827.95 193.208 1837.2 173.896ZM1814.35 127.928L1753.15 128.472C1753.96 98.28 1767.84 80.6 1786.88 80.6C1809.72 80.6 1814.35 102.904 1814.35 127.928Z" fill="#FFF"/>
</svg>
